<mxfile host="app.diagrams.net" modified="2023-11-17T17:59:29.585Z" agent="Mozilla/5.0 (Windows NT 10.0; Win64; x64) AppleWebKit/537.36 (KHTML, like Gecko) Chrome/120.0.0.0 Safari/537.36 Edg/120.0.0.0" etag="gZ-SLrlgVstVwgbh3ro6" version="22.1.3" type="device" pages="4">
  <diagram name="第 1 页" id="teyiuxO4rG7-aimbCpJ4">
    <mxGraphModel dx="1542" dy="869" grid="1" gridSize="10" guides="1" tooltips="1" connect="1" arrows="1" fold="1" page="1" pageScale="1" pageWidth="827" pageHeight="1169" math="0" shadow="0">
      <root>
        <mxCell id="0" />
        <mxCell id="1" parent="0" />
        <mxCell id="UAzAAzWHKbBNM5DCKNLK-1" value="" style="endArrow=none;html=1;rounded=0;" edge="1" parent="1">
          <mxGeometry width="50" height="50" relative="1" as="geometry">
            <mxPoint x="400" y="1230" as="sourcePoint" />
            <mxPoint x="400" as="targetPoint" />
          </mxGeometry>
        </mxCell>
        <mxCell id="UAzAAzWHKbBNM5DCKNLK-4" value="&lt;font style=&quot;font-size: 30px;&quot;&gt;学生&lt;/font&gt;" style="rounded=0;whiteSpace=wrap;html=1;" vertex="1" parent="1">
          <mxGeometry width="400" height="70" as="geometry" />
        </mxCell>
        <mxCell id="UAzAAzWHKbBNM5DCKNLK-5" value="&lt;font style=&quot;font-size: 30px;&quot;&gt;系统&lt;/font&gt;" style="rounded=0;whiteSpace=wrap;html=1;" vertex="1" parent="1">
          <mxGeometry x="400" width="420" height="70" as="geometry" />
        </mxCell>
        <mxCell id="UAzAAzWHKbBNM5DCKNLK-9" style="edgeStyle=orthogonalEdgeStyle;rounded=0;orthogonalLoop=1;jettySize=auto;html=1;entryX=0.5;entryY=0;entryDx=0;entryDy=0;" edge="1" parent="1" source="UAzAAzWHKbBNM5DCKNLK-6" target="UAzAAzWHKbBNM5DCKNLK-7">
          <mxGeometry relative="1" as="geometry" />
        </mxCell>
        <mxCell id="UAzAAzWHKbBNM5DCKNLK-6" value="" style="ellipse;whiteSpace=wrap;html=1;aspect=fixed;shadow=0;fillColor=#000000;" vertex="1" parent="1">
          <mxGeometry x="180" y="110" width="40" height="40" as="geometry" />
        </mxCell>
        <mxCell id="UAzAAzWHKbBNM5DCKNLK-10" style="edgeStyle=orthogonalEdgeStyle;rounded=0;orthogonalLoop=1;jettySize=auto;html=1;entryX=0;entryY=0.5;entryDx=0;entryDy=0;" edge="1" parent="1" source="UAzAAzWHKbBNM5DCKNLK-7" target="UAzAAzWHKbBNM5DCKNLK-8">
          <mxGeometry relative="1" as="geometry" />
        </mxCell>
        <mxCell id="UAzAAzWHKbBNM5DCKNLK-7" value="&lt;font style=&quot;font-size: 25px;&quot;&gt;点击注册&lt;/font&gt;" style="rounded=1;whiteSpace=wrap;html=1;" vertex="1" parent="1">
          <mxGeometry x="140" y="230" width="120" height="60" as="geometry" />
        </mxCell>
        <mxCell id="UAzAAzWHKbBNM5DCKNLK-15" style="edgeStyle=orthogonalEdgeStyle;rounded=0;orthogonalLoop=1;jettySize=auto;html=1;entryX=0.5;entryY=0;entryDx=0;entryDy=0;" edge="1" parent="1" source="UAzAAzWHKbBNM5DCKNLK-8" target="UAzAAzWHKbBNM5DCKNLK-14">
          <mxGeometry relative="1" as="geometry">
            <Array as="points">
              <mxPoint x="640" y="320" />
              <mxPoint x="200" y="320" />
            </Array>
          </mxGeometry>
        </mxCell>
        <mxCell id="UAzAAzWHKbBNM5DCKNLK-8" value="&lt;font style=&quot;font-size: 25px;&quot;&gt;调取页面信息&lt;/font&gt;" style="rounded=1;whiteSpace=wrap;html=1;" vertex="1" parent="1">
          <mxGeometry x="550" y="230" width="180" height="60" as="geometry" />
        </mxCell>
        <mxCell id="UAzAAzWHKbBNM5DCKNLK-17" style="edgeStyle=orthogonalEdgeStyle;rounded=0;orthogonalLoop=1;jettySize=auto;html=1;entryX=0;entryY=0.5;entryDx=0;entryDy=0;" edge="1" parent="1" source="UAzAAzWHKbBNM5DCKNLK-14" target="UAzAAzWHKbBNM5DCKNLK-16">
          <mxGeometry relative="1" as="geometry" />
        </mxCell>
        <mxCell id="UAzAAzWHKbBNM5DCKNLK-14" value="&lt;font style=&quot;font-size: 25px;&quot;&gt;键入个人信息&lt;/font&gt;" style="rounded=1;whiteSpace=wrap;html=1;" vertex="1" parent="1">
          <mxGeometry x="110" y="370" width="180" height="60" as="geometry" />
        </mxCell>
        <mxCell id="UAzAAzWHKbBNM5DCKNLK-16" value="&lt;font style=&quot;font-size: 25px;&quot;&gt;检索学生名册&lt;/font&gt;" style="rounded=1;whiteSpace=wrap;html=1;" vertex="1" parent="1">
          <mxGeometry x="550" y="369" width="180" height="60" as="geometry" />
        </mxCell>
        <mxCell id="UAzAAzWHKbBNM5DCKNLK-22" style="edgeStyle=orthogonalEdgeStyle;rounded=0;orthogonalLoop=1;jettySize=auto;html=1;entryX=1;entryY=0.5;entryDx=0;entryDy=0;" edge="1" parent="1" source="UAzAAzWHKbBNM5DCKNLK-18" target="UAzAAzWHKbBNM5DCKNLK-19">
          <mxGeometry relative="1" as="geometry" />
        </mxCell>
        <mxCell id="B19_i3a8MoNz5f4EZK6G-2" value="信息无效" style="edgeLabel;html=1;align=center;verticalAlign=middle;resizable=0;points=[];fontSize=15;" vertex="1" connectable="0" parent="UAzAAzWHKbBNM5DCKNLK-22">
          <mxGeometry x="-0.0416" y="3" relative="1" as="geometry">
            <mxPoint as="offset" />
          </mxGeometry>
        </mxCell>
        <mxCell id="UAzAAzWHKbBNM5DCKNLK-26" style="edgeStyle=orthogonalEdgeStyle;rounded=0;orthogonalLoop=1;jettySize=auto;html=1;entryX=0.5;entryY=0;entryDx=0;entryDy=0;" edge="1" parent="1" source="UAzAAzWHKbBNM5DCKNLK-18" target="UAzAAzWHKbBNM5DCKNLK-24">
          <mxGeometry relative="1" as="geometry">
            <Array as="points">
              <mxPoint x="684" y="610" />
              <mxPoint x="200" y="610" />
            </Array>
          </mxGeometry>
        </mxCell>
        <mxCell id="B19_i3a8MoNz5f4EZK6G-1" value="信息有效" style="edgeLabel;html=1;align=center;verticalAlign=middle;resizable=0;points=[];fontSize=16;" vertex="1" connectable="0" parent="UAzAAzWHKbBNM5DCKNLK-26">
          <mxGeometry x="-0.4697" relative="1" as="geometry">
            <mxPoint as="offset" />
          </mxGeometry>
        </mxCell>
        <mxCell id="UAzAAzWHKbBNM5DCKNLK-18" value="" style="html=1;whiteSpace=wrap;aspect=fixed;shape=isoRectangle;" vertex="1" parent="1">
          <mxGeometry x="626" y="510" width="116.67" height="70" as="geometry" />
        </mxCell>
        <mxCell id="UAzAAzWHKbBNM5DCKNLK-20" style="edgeStyle=orthogonalEdgeStyle;rounded=0;orthogonalLoop=1;jettySize=auto;html=1;entryX=0.5;entryY=1;entryDx=0;entryDy=0;" edge="1" parent="1" source="UAzAAzWHKbBNM5DCKNLK-19" target="UAzAAzWHKbBNM5DCKNLK-14">
          <mxGeometry relative="1" as="geometry" />
        </mxCell>
        <mxCell id="UAzAAzWHKbBNM5DCKNLK-19" value="&lt;font style=&quot;font-size: 25px;&quot;&gt;系统提示&lt;/font&gt;" style="rounded=1;whiteSpace=wrap;html=1;" vertex="1" parent="1">
          <mxGeometry x="420" y="515" width="120" height="60" as="geometry" />
        </mxCell>
        <mxCell id="UAzAAzWHKbBNM5DCKNLK-21" style="edgeStyle=orthogonalEdgeStyle;rounded=0;orthogonalLoop=1;jettySize=auto;html=1;exitX=0.75;exitY=1;exitDx=0;exitDy=0;entryX=0.502;entryY=-0.039;entryDx=0;entryDy=0;entryPerimeter=0;" edge="1" parent="1" source="UAzAAzWHKbBNM5DCKNLK-16" target="UAzAAzWHKbBNM5DCKNLK-18">
          <mxGeometry relative="1" as="geometry" />
        </mxCell>
        <mxCell id="UAzAAzWHKbBNM5DCKNLK-34" style="edgeStyle=orthogonalEdgeStyle;rounded=0;orthogonalLoop=1;jettySize=auto;html=1;entryX=0;entryY=0.5;entryDx=0;entryDy=0;" edge="1" parent="1" source="UAzAAzWHKbBNM5DCKNLK-24" target="UAzAAzWHKbBNM5DCKNLK-29">
          <mxGeometry relative="1" as="geometry" />
        </mxCell>
        <mxCell id="UAzAAzWHKbBNM5DCKNLK-24" value="&lt;font style=&quot;font-size: 25px;&quot;&gt;键入密码&lt;/font&gt;" style="rounded=1;whiteSpace=wrap;html=1;" vertex="1" parent="1">
          <mxGeometry x="140" y="660" width="120" height="60" as="geometry" />
        </mxCell>
        <mxCell id="UAzAAzWHKbBNM5DCKNLK-29" value="&lt;font style=&quot;font-size: 25px;&quot;&gt;检查密码有效性&lt;/font&gt;" style="rounded=1;whiteSpace=wrap;html=1;" vertex="1" parent="1">
          <mxGeometry x="560" y="660" width="200" height="60" as="geometry" />
        </mxCell>
        <mxCell id="UAzAAzWHKbBNM5DCKNLK-30" style="edgeStyle=orthogonalEdgeStyle;rounded=0;orthogonalLoop=1;jettySize=auto;html=1;entryX=1;entryY=0.5;entryDx=0;entryDy=0;" edge="1" source="UAzAAzWHKbBNM5DCKNLK-31" target="UAzAAzWHKbBNM5DCKNLK-32" parent="1">
          <mxGeometry relative="1" as="geometry" />
        </mxCell>
        <mxCell id="B19_i3a8MoNz5f4EZK6G-5" value="密码无效" style="edgeLabel;html=1;align=center;verticalAlign=middle;resizable=0;points=[];fontSize=15;" vertex="1" connectable="0" parent="UAzAAzWHKbBNM5DCKNLK-30">
          <mxGeometry x="-0.2934" relative="1" as="geometry">
            <mxPoint as="offset" />
          </mxGeometry>
        </mxCell>
        <mxCell id="UAzAAzWHKbBNM5DCKNLK-38" style="edgeStyle=orthogonalEdgeStyle;rounded=0;orthogonalLoop=1;jettySize=auto;html=1;entryX=0.5;entryY=0;entryDx=0;entryDy=0;" edge="1" parent="1" source="UAzAAzWHKbBNM5DCKNLK-31" target="UAzAAzWHKbBNM5DCKNLK-36">
          <mxGeometry relative="1" as="geometry" />
        </mxCell>
        <mxCell id="B19_i3a8MoNz5f4EZK6G-4" value="密码有效" style="edgeLabel;html=1;align=center;verticalAlign=middle;resizable=0;points=[];fontSize=16;" vertex="1" connectable="0" parent="UAzAAzWHKbBNM5DCKNLK-38">
          <mxGeometry x="-0.1427" y="4" relative="1" as="geometry">
            <mxPoint as="offset" />
          </mxGeometry>
        </mxCell>
        <mxCell id="UAzAAzWHKbBNM5DCKNLK-31" value="" style="html=1;whiteSpace=wrap;aspect=fixed;shape=isoRectangle;" vertex="1" parent="1">
          <mxGeometry x="651" y="801" width="116.67" height="70" as="geometry" />
        </mxCell>
        <mxCell id="UAzAAzWHKbBNM5DCKNLK-35" style="edgeStyle=orthogonalEdgeStyle;rounded=0;orthogonalLoop=1;jettySize=auto;html=1;entryX=0.5;entryY=1;entryDx=0;entryDy=0;" edge="1" parent="1" source="UAzAAzWHKbBNM5DCKNLK-32" target="UAzAAzWHKbBNM5DCKNLK-24">
          <mxGeometry relative="1" as="geometry" />
        </mxCell>
        <mxCell id="UAzAAzWHKbBNM5DCKNLK-32" value="&lt;font style=&quot;font-size: 25px;&quot;&gt;系统提示&lt;/font&gt;" style="rounded=1;whiteSpace=wrap;html=1;" vertex="1" parent="1">
          <mxGeometry x="430" y="806" width="120" height="60" as="geometry" />
        </mxCell>
        <mxCell id="UAzAAzWHKbBNM5DCKNLK-33" style="edgeStyle=orthogonalEdgeStyle;rounded=0;orthogonalLoop=1;jettySize=auto;html=1;exitX=0.75;exitY=1;exitDx=0;exitDy=0;entryX=0.502;entryY=-0.039;entryDx=0;entryDy=0;entryPerimeter=0;" edge="1" source="UAzAAzWHKbBNM5DCKNLK-29" target="UAzAAzWHKbBNM5DCKNLK-31" parent="1">
          <mxGeometry relative="1" as="geometry" />
        </mxCell>
        <mxCell id="UAzAAzWHKbBNM5DCKNLK-39" style="edgeStyle=orthogonalEdgeStyle;rounded=0;orthogonalLoop=1;jettySize=auto;html=1;entryX=0.5;entryY=0;entryDx=0;entryDy=0;" edge="1" parent="1" source="UAzAAzWHKbBNM5DCKNLK-36" target="UAzAAzWHKbBNM5DCKNLK-37">
          <mxGeometry relative="1" as="geometry" />
        </mxCell>
        <mxCell id="UAzAAzWHKbBNM5DCKNLK-36" value="&lt;font style=&quot;font-size: 25px;&quot;&gt;更新学生名册&lt;/font&gt;" style="rounded=1;whiteSpace=wrap;html=1;" vertex="1" parent="1">
          <mxGeometry x="540" y="930" width="180" height="60" as="geometry" />
        </mxCell>
        <mxCell id="UAzAAzWHKbBNM5DCKNLK-42" value="" style="edgeStyle=orthogonalEdgeStyle;rounded=0;orthogonalLoop=1;jettySize=auto;html=1;" edge="1" parent="1" source="UAzAAzWHKbBNM5DCKNLK-37" target="UAzAAzWHKbBNM5DCKNLK-41">
          <mxGeometry relative="1" as="geometry" />
        </mxCell>
        <mxCell id="UAzAAzWHKbBNM5DCKNLK-37" value="&lt;font style=&quot;font-size: 25px;&quot;&gt;系统提示&lt;/font&gt;" style="rounded=1;whiteSpace=wrap;html=1;" vertex="1" parent="1">
          <mxGeometry x="570" y="1020" width="120" height="60" as="geometry" />
        </mxCell>
        <mxCell id="UAzAAzWHKbBNM5DCKNLK-40" value="" style="ellipse;whiteSpace=wrap;html=1;aspect=fixed;shadow=0;fillColor=#000000;" vertex="1" parent="1">
          <mxGeometry x="610" y="1150" width="40" height="40" as="geometry" />
        </mxCell>
        <mxCell id="UAzAAzWHKbBNM5DCKNLK-41" value="" style="ellipse;whiteSpace=wrap;html=1;aspect=fixed;fillColor=none;" vertex="1" parent="1">
          <mxGeometry x="595" y="1135" width="70" height="70" as="geometry" />
        </mxCell>
      </root>
    </mxGraphModel>
  </diagram>
  <diagram id="s9XZntJGL8tvC4vqJT3q" name="第 2 页">
    <mxGraphModel dx="2004" dy="1130" grid="1" gridSize="10" guides="1" tooltips="1" connect="1" arrows="1" fold="1" page="1" pageScale="1" pageWidth="827" pageHeight="1169" math="0" shadow="0">
      <root>
        <mxCell id="0" />
        <mxCell id="1" parent="0" />
        <mxCell id="mJSoEh05kiv7yehmUORo-1" value="" style="endArrow=none;html=1;rounded=0;" edge="1" parent="1">
          <mxGeometry width="50" height="50" relative="1" as="geometry">
            <mxPoint x="400" y="930" as="sourcePoint" />
            <mxPoint x="400" as="targetPoint" />
          </mxGeometry>
        </mxCell>
        <mxCell id="mJSoEh05kiv7yehmUORo-2" value="&lt;font style=&quot;font-size: 30px;&quot;&gt;系办&lt;/font&gt;" style="rounded=0;whiteSpace=wrap;html=1;" vertex="1" parent="1">
          <mxGeometry width="400" height="70" as="geometry" />
        </mxCell>
        <mxCell id="mJSoEh05kiv7yehmUORo-3" value="&lt;font style=&quot;font-size: 30px;&quot;&gt;系统&lt;/font&gt;" style="rounded=0;whiteSpace=wrap;html=1;" vertex="1" parent="1">
          <mxGeometry x="400" width="420" height="70" as="geometry" />
        </mxCell>
        <mxCell id="mJSoEh05kiv7yehmUORo-4" style="edgeStyle=orthogonalEdgeStyle;rounded=0;orthogonalLoop=1;jettySize=auto;html=1;entryX=0.5;entryY=0;entryDx=0;entryDy=0;" edge="1" parent="1" source="mJSoEh05kiv7yehmUORo-5" target="mJSoEh05kiv7yehmUORo-7">
          <mxGeometry relative="1" as="geometry" />
        </mxCell>
        <mxCell id="mJSoEh05kiv7yehmUORo-5" value="" style="ellipse;whiteSpace=wrap;html=1;aspect=fixed;shadow=0;fillColor=#000000;" vertex="1" parent="1">
          <mxGeometry x="180" y="110" width="40" height="40" as="geometry" />
        </mxCell>
        <mxCell id="mJSoEh05kiv7yehmUORo-6" style="edgeStyle=orthogonalEdgeStyle;rounded=0;orthogonalLoop=1;jettySize=auto;html=1;entryX=0;entryY=0.5;entryDx=0;entryDy=0;" edge="1" parent="1" source="mJSoEh05kiv7yehmUORo-7" target="mJSoEh05kiv7yehmUORo-9">
          <mxGeometry relative="1" as="geometry" />
        </mxCell>
        <mxCell id="mJSoEh05kiv7yehmUORo-7" value="&lt;font style=&quot;font-size: 25px;&quot;&gt;点击查看数据统计&lt;/font&gt;" style="rounded=1;whiteSpace=wrap;html=1;" vertex="1" parent="1">
          <mxGeometry x="70" y="230" width="260" height="60" as="geometry" />
        </mxCell>
        <mxCell id="Og9bwA2rhZr0OKm35MgI-3" style="edgeStyle=orthogonalEdgeStyle;rounded=0;orthogonalLoop=1;jettySize=auto;html=1;entryX=0.5;entryY=0;entryDx=0;entryDy=0;" edge="1" parent="1" source="mJSoEh05kiv7yehmUORo-9" target="mJSoEh05kiv7yehmUORo-11">
          <mxGeometry relative="1" as="geometry">
            <Array as="points">
              <mxPoint x="640" y="330" />
              <mxPoint x="175" y="330" />
            </Array>
          </mxGeometry>
        </mxCell>
        <mxCell id="mJSoEh05kiv7yehmUORo-9" value="&lt;font style=&quot;font-size: 25px;&quot;&gt;调取页面信息&lt;/font&gt;" style="rounded=1;whiteSpace=wrap;html=1;" vertex="1" parent="1">
          <mxGeometry x="550" y="230" width="180" height="60" as="geometry" />
        </mxCell>
        <mxCell id="mJSoEh05kiv7yehmUORo-10" style="edgeStyle=orthogonalEdgeStyle;rounded=0;orthogonalLoop=1;jettySize=auto;html=1;entryX=0;entryY=0.5;entryDx=0;entryDy=0;" edge="1" parent="1" source="mJSoEh05kiv7yehmUORo-11" target="mJSoEh05kiv7yehmUORo-12">
          <mxGeometry relative="1" as="geometry" />
        </mxCell>
        <mxCell id="mJSoEh05kiv7yehmUORo-11" value="&lt;span style=&quot;font-size: 25px;&quot;&gt;选择统计信息类别&lt;/span&gt;" style="rounded=1;whiteSpace=wrap;html=1;" vertex="1" parent="1">
          <mxGeometry x="40" y="370" width="270" height="60" as="geometry" />
        </mxCell>
        <mxCell id="mJSoEh05kiv7yehmUORo-12" value="&lt;font style=&quot;font-size: 25px;&quot;&gt;检索统计信息类别&lt;/font&gt;" style="rounded=1;whiteSpace=wrap;html=1;" vertex="1" parent="1">
          <mxGeometry x="550" y="369" width="240" height="60" as="geometry" />
        </mxCell>
        <mxCell id="mJSoEh05kiv7yehmUORo-13" style="edgeStyle=orthogonalEdgeStyle;rounded=0;orthogonalLoop=1;jettySize=auto;html=1;entryX=1;entryY=0.5;entryDx=0;entryDy=0;" edge="1" parent="1" source="mJSoEh05kiv7yehmUORo-15" target="mJSoEh05kiv7yehmUORo-17">
          <mxGeometry relative="1" as="geometry" />
        </mxCell>
        <mxCell id="Og9bwA2rhZr0OKm35MgI-2" value="类别无效" style="edgeLabel;html=1;align=center;verticalAlign=middle;resizable=0;points=[];fontSize=15;" vertex="1" connectable="0" parent="mJSoEh05kiv7yehmUORo-13">
          <mxGeometry x="-0.0803" y="1" relative="1" as="geometry">
            <mxPoint as="offset" />
          </mxGeometry>
        </mxCell>
        <mxCell id="mJSoEh05kiv7yehmUORo-34" style="edgeStyle=orthogonalEdgeStyle;rounded=0;orthogonalLoop=1;jettySize=auto;html=1;entryX=0.5;entryY=0;entryDx=0;entryDy=0;" edge="1" parent="1" source="mJSoEh05kiv7yehmUORo-15" target="mJSoEh05kiv7yehmUORo-29">
          <mxGeometry relative="1" as="geometry" />
        </mxCell>
        <mxCell id="Og9bwA2rhZr0OKm35MgI-1" value="类别有效" style="edgeLabel;html=1;align=center;verticalAlign=middle;resizable=0;points=[];fontSize=16;" vertex="1" connectable="0" parent="mJSoEh05kiv7yehmUORo-34">
          <mxGeometry x="-0.1464" y="2" relative="1" as="geometry">
            <mxPoint as="offset" />
          </mxGeometry>
        </mxCell>
        <mxCell id="mJSoEh05kiv7yehmUORo-15" value="" style="html=1;whiteSpace=wrap;aspect=fixed;shape=isoRectangle;" vertex="1" parent="1">
          <mxGeometry x="622" y="510" width="116.67" height="70" as="geometry" />
        </mxCell>
        <mxCell id="mJSoEh05kiv7yehmUORo-16" style="edgeStyle=orthogonalEdgeStyle;rounded=0;orthogonalLoop=1;jettySize=auto;html=1;entryX=0.5;entryY=1;entryDx=0;entryDy=0;" edge="1" parent="1" source="mJSoEh05kiv7yehmUORo-17" target="mJSoEh05kiv7yehmUORo-11">
          <mxGeometry relative="1" as="geometry" />
        </mxCell>
        <mxCell id="mJSoEh05kiv7yehmUORo-17" value="&lt;font style=&quot;font-size: 25px;&quot;&gt;系统提示&lt;/font&gt;" style="rounded=1;whiteSpace=wrap;html=1;" vertex="1" parent="1">
          <mxGeometry x="420" y="515" width="120" height="60" as="geometry" />
        </mxCell>
        <mxCell id="mJSoEh05kiv7yehmUORo-18" style="edgeStyle=orthogonalEdgeStyle;rounded=0;orthogonalLoop=1;jettySize=auto;html=1;exitX=0.545;exitY=1.006;exitDx=0;exitDy=0;entryX=0.502;entryY=-0.039;entryDx=0;entryDy=0;entryPerimeter=0;exitPerimeter=0;" edge="1" parent="1" source="mJSoEh05kiv7yehmUORo-12" target="mJSoEh05kiv7yehmUORo-15">
          <mxGeometry relative="1" as="geometry" />
        </mxCell>
        <mxCell id="mJSoEh05kiv7yehmUORo-35" style="edgeStyle=orthogonalEdgeStyle;rounded=0;orthogonalLoop=1;jettySize=auto;html=1;exitX=0.5;exitY=1;exitDx=0;exitDy=0;entryX=0.5;entryY=0;entryDx=0;entryDy=0;" edge="1" parent="1" source="mJSoEh05kiv7yehmUORo-29" target="mJSoEh05kiv7yehmUORo-33">
          <mxGeometry relative="1" as="geometry" />
        </mxCell>
        <mxCell id="mJSoEh05kiv7yehmUORo-29" value="&lt;font style=&quot;font-size: 25px;&quot;&gt;检索和显示统计信息&lt;/font&gt;" style="rounded=1;whiteSpace=wrap;html=1;" vertex="1" parent="1">
          <mxGeometry x="540" y="660" width="280" height="60" as="geometry" />
        </mxCell>
        <mxCell id="mJSoEh05kiv7yehmUORo-32" value="" style="ellipse;whiteSpace=wrap;html=1;aspect=fixed;shadow=0;fillColor=#000000;" vertex="1" parent="1">
          <mxGeometry x="660.34" y="845" width="40" height="40" as="geometry" />
        </mxCell>
        <mxCell id="mJSoEh05kiv7yehmUORo-33" value="" style="ellipse;whiteSpace=wrap;html=1;aspect=fixed;fillColor=none;" vertex="1" parent="1">
          <mxGeometry x="645.34" y="830" width="70" height="70" as="geometry" />
        </mxCell>
      </root>
    </mxGraphModel>
  </diagram>
  <diagram id="5G7CvxPpCeswq1TvLivy" name="第 3 页">
    <mxGraphModel dx="2505" dy="1413" grid="1" gridSize="10" guides="1" tooltips="1" connect="1" arrows="1" fold="1" page="1" pageScale="1" pageWidth="827" pageHeight="1169" math="0" shadow="0">
      <root>
        <mxCell id="0" />
        <mxCell id="1" parent="0" />
        <mxCell id="N59Xq0roTIGR6HwTiRZq-1" value="" style="endArrow=none;html=1;rounded=0;" edge="1" parent="1">
          <mxGeometry width="50" height="50" relative="1" as="geometry">
            <mxPoint x="400" y="1720" as="sourcePoint" />
            <mxPoint x="400" as="targetPoint" />
          </mxGeometry>
        </mxCell>
        <mxCell id="N59Xq0roTIGR6HwTiRZq-2" value="&lt;font style=&quot;font-size: 30px;&quot;&gt;系办&lt;/font&gt;" style="rounded=0;whiteSpace=wrap;html=1;" vertex="1" parent="1">
          <mxGeometry width="400" height="70" as="geometry" />
        </mxCell>
        <mxCell id="N59Xq0roTIGR6HwTiRZq-3" value="&lt;font style=&quot;font-size: 30px;&quot;&gt;系统&lt;/font&gt;" style="rounded=0;whiteSpace=wrap;html=1;" vertex="1" parent="1">
          <mxGeometry x="400" width="420" height="70" as="geometry" />
        </mxCell>
        <mxCell id="N59Xq0roTIGR6HwTiRZq-4" style="edgeStyle=orthogonalEdgeStyle;rounded=0;orthogonalLoop=1;jettySize=auto;html=1;entryX=0.5;entryY=0;entryDx=0;entryDy=0;" edge="1" parent="1" source="N59Xq0roTIGR6HwTiRZq-5" target="N59Xq0roTIGR6HwTiRZq-7">
          <mxGeometry relative="1" as="geometry" />
        </mxCell>
        <mxCell id="N59Xq0roTIGR6HwTiRZq-5" value="" style="ellipse;whiteSpace=wrap;html=1;aspect=fixed;shadow=0;fillColor=#000000;" vertex="1" parent="1">
          <mxGeometry x="180" y="110" width="40" height="40" as="geometry" />
        </mxCell>
        <mxCell id="N59Xq0roTIGR6HwTiRZq-6" style="edgeStyle=orthogonalEdgeStyle;rounded=0;orthogonalLoop=1;jettySize=auto;html=1;entryX=0;entryY=0.5;entryDx=0;entryDy=0;" edge="1" parent="1" source="N59Xq0roTIGR6HwTiRZq-7" target="N59Xq0roTIGR6HwTiRZq-9">
          <mxGeometry relative="1" as="geometry" />
        </mxCell>
        <mxCell id="N59Xq0roTIGR6HwTiRZq-7" value="&lt;font style=&quot;font-size: 25px;&quot;&gt;点击资格管理&lt;/font&gt;" style="rounded=1;whiteSpace=wrap;html=1;" vertex="1" parent="1">
          <mxGeometry x="109" y="230" width="180" height="60" as="geometry" />
        </mxCell>
        <mxCell id="N59Xq0roTIGR6HwTiRZq-40" style="edgeStyle=orthogonalEdgeStyle;rounded=0;orthogonalLoop=1;jettySize=auto;html=1;entryX=0.5;entryY=0;entryDx=0;entryDy=0;" edge="1" parent="1" source="N59Xq0roTIGR6HwTiRZq-9" target="N59Xq0roTIGR6HwTiRZq-12">
          <mxGeometry relative="1" as="geometry" />
        </mxCell>
        <mxCell id="N59Xq0roTIGR6HwTiRZq-9" value="&lt;font style=&quot;font-size: 25px;&quot;&gt;调取页面信息&lt;/font&gt;" style="rounded=1;whiteSpace=wrap;html=1;" vertex="1" parent="1">
          <mxGeometry x="550" y="230" width="180" height="60" as="geometry" />
        </mxCell>
        <mxCell id="N59Xq0roTIGR6HwTiRZq-12" value="&lt;font style=&quot;font-size: 25px;&quot;&gt;检索待审资格信息&lt;/font&gt;" style="rounded=1;whiteSpace=wrap;html=1;" vertex="1" parent="1">
          <mxGeometry x="530" y="369" width="220" height="60" as="geometry" />
        </mxCell>
        <mxCell id="N59Xq0roTIGR6HwTiRZq-13" style="edgeStyle=orthogonalEdgeStyle;rounded=0;orthogonalLoop=1;jettySize=auto;html=1;entryX=1;entryY=0.5;entryDx=0;entryDy=0;" edge="1" parent="1" source="N59Xq0roTIGR6HwTiRZq-17" target="N59Xq0roTIGR6HwTiRZq-19">
          <mxGeometry relative="1" as="geometry" />
        </mxCell>
        <mxCell id="N59Xq0roTIGR6HwTiRZq-14" value="&lt;font style=&quot;font-size: 15px;&quot;&gt;无待审信息&lt;/font&gt;" style="edgeLabel;html=1;align=center;verticalAlign=middle;resizable=0;points=[];" vertex="1" connectable="0" parent="N59Xq0roTIGR6HwTiRZq-13">
          <mxGeometry x="-0.0416" y="3" relative="1" as="geometry">
            <mxPoint as="offset" />
          </mxGeometry>
        </mxCell>
        <mxCell id="N59Xq0roTIGR6HwTiRZq-17" value="" style="html=1;whiteSpace=wrap;aspect=fixed;shape=isoRectangle;" vertex="1" parent="1">
          <mxGeometry x="635" y="510" width="116.67" height="70" as="geometry" />
        </mxCell>
        <mxCell id="N59Xq0roTIGR6HwTiRZq-44" style="edgeStyle=orthogonalEdgeStyle;rounded=0;orthogonalLoop=1;jettySize=auto;html=1;exitX=0.5;exitY=1;exitDx=0;exitDy=0;entryX=0.5;entryY=0;entryDx=0;entryDy=0;" edge="1" parent="1" source="N59Xq0roTIGR6HwTiRZq-19" target="N59Xq0roTIGR6HwTiRZq-43">
          <mxGeometry relative="1" as="geometry" />
        </mxCell>
        <mxCell id="N59Xq0roTIGR6HwTiRZq-19" value="&lt;font style=&quot;font-size: 25px;&quot;&gt;系统提示&lt;/font&gt;" style="rounded=1;whiteSpace=wrap;html=1;" vertex="1" parent="1">
          <mxGeometry x="420" y="515" width="120" height="60" as="geometry" />
        </mxCell>
        <mxCell id="Nl35PtOD45Dkv_G6FPpB-3" style="edgeStyle=orthogonalEdgeStyle;rounded=0;orthogonalLoop=1;jettySize=auto;html=1;entryX=0.5;entryY=0;entryDx=0;entryDy=0;" edge="1" parent="1" source="N59Xq0roTIGR6HwTiRZq-22" target="Nl35PtOD45Dkv_G6FPpB-2">
          <mxGeometry relative="1" as="geometry">
            <Array as="points">
              <mxPoint x="175" y="760" />
              <mxPoint x="660" y="760" />
            </Array>
          </mxGeometry>
        </mxCell>
        <mxCell id="N59Xq0roTIGR6HwTiRZq-22" value="&lt;span style=&quot;font-size: 25px;&quot;&gt;选择待审信息&lt;/span&gt;" style="rounded=1;whiteSpace=wrap;html=1;" vertex="1" parent="1">
          <mxGeometry x="90" y="660" width="170" height="60" as="geometry" />
        </mxCell>
        <mxCell id="Nl35PtOD45Dkv_G6FPpB-1" style="edgeStyle=orthogonalEdgeStyle;rounded=0;orthogonalLoop=1;jettySize=auto;html=1;entryX=1;entryY=0.5;entryDx=0;entryDy=0;" edge="1" parent="1" source="N59Xq0roTIGR6HwTiRZq-23" target="N59Xq0roTIGR6HwTiRZq-22">
          <mxGeometry relative="1" as="geometry" />
        </mxCell>
        <mxCell id="N59Xq0roTIGR6HwTiRZq-23" value="&lt;font style=&quot;font-size: 25px;&quot;&gt;显示待审信息&lt;/font&gt;" style="rounded=1;whiteSpace=wrap;html=1;" vertex="1" parent="1">
          <mxGeometry x="560" y="660" width="200" height="60" as="geometry" />
        </mxCell>
        <mxCell id="N59Xq0roTIGR6HwTiRZq-36" value="" style="ellipse;whiteSpace=wrap;html=1;aspect=fixed;shadow=0;fillColor=#000000;" vertex="1" parent="1">
          <mxGeometry x="621" y="1595" width="40" height="40" as="geometry" />
        </mxCell>
        <mxCell id="N59Xq0roTIGR6HwTiRZq-37" value="" style="ellipse;whiteSpace=wrap;html=1;aspect=fixed;fillColor=none;" vertex="1" parent="1">
          <mxGeometry x="606" y="1580" width="70" height="70" as="geometry" />
        </mxCell>
        <mxCell id="N59Xq0roTIGR6HwTiRZq-38" value="" style="endArrow=none;html=1;rounded=0;" edge="1" parent="1">
          <mxGeometry width="50" height="50" relative="1" as="geometry">
            <mxPoint x="820" y="1720" as="sourcePoint" />
            <mxPoint x="820" as="targetPoint" />
          </mxGeometry>
        </mxCell>
        <mxCell id="N59Xq0roTIGR6HwTiRZq-39" value="&lt;font style=&quot;font-size: 30px;&quot;&gt;学生&lt;/font&gt;" style="rounded=0;whiteSpace=wrap;html=1;" vertex="1" parent="1">
          <mxGeometry x="820" width="420" height="70" as="geometry" />
        </mxCell>
        <mxCell id="N59Xq0roTIGR6HwTiRZq-41" style="edgeStyle=orthogonalEdgeStyle;rounded=0;orthogonalLoop=1;jettySize=auto;html=1;exitX=0.75;exitY=1;exitDx=0;exitDy=0;entryX=0.514;entryY=-0.024;entryDx=0;entryDy=0;entryPerimeter=0;" edge="1" parent="1" source="N59Xq0roTIGR6HwTiRZq-12" target="N59Xq0roTIGR6HwTiRZq-17">
          <mxGeometry relative="1" as="geometry" />
        </mxCell>
        <mxCell id="N59Xq0roTIGR6HwTiRZq-42" value="" style="ellipse;whiteSpace=wrap;html=1;aspect=fixed;shadow=0;fillColor=#000000;" vertex="1" parent="1">
          <mxGeometry x="460" y="625" width="40" height="40" as="geometry" />
        </mxCell>
        <mxCell id="N59Xq0roTIGR6HwTiRZq-43" value="" style="ellipse;whiteSpace=wrap;html=1;aspect=fixed;fillColor=none;" vertex="1" parent="1">
          <mxGeometry x="445" y="610" width="70" height="70" as="geometry" />
        </mxCell>
        <mxCell id="N59Xq0roTIGR6HwTiRZq-46" style="edgeStyle=orthogonalEdgeStyle;rounded=0;orthogonalLoop=1;jettySize=auto;html=1;entryX=0.666;entryY=-0.046;entryDx=0;entryDy=0;entryPerimeter=0;" edge="1" parent="1" source="N59Xq0roTIGR6HwTiRZq-17" target="N59Xq0roTIGR6HwTiRZq-23">
          <mxGeometry relative="1" as="geometry" />
        </mxCell>
        <mxCell id="N59Xq0roTIGR6HwTiRZq-47" value="&lt;font style=&quot;font-size: 16px;&quot;&gt;有待审信息&lt;/font&gt;" style="edgeLabel;html=1;align=center;verticalAlign=middle;resizable=0;points=[];" vertex="1" connectable="0" parent="N59Xq0roTIGR6HwTiRZq-46">
          <mxGeometry x="-0.0195" relative="1" as="geometry">
            <mxPoint y="2" as="offset" />
          </mxGeometry>
        </mxCell>
        <mxCell id="Nl35PtOD45Dkv_G6FPpB-5" style="edgeStyle=orthogonalEdgeStyle;rounded=0;orthogonalLoop=1;jettySize=auto;html=1;entryX=1;entryY=0.5;entryDx=0;entryDy=0;" edge="1" parent="1" source="Nl35PtOD45Dkv_G6FPpB-2" target="Nl35PtOD45Dkv_G6FPpB-4">
          <mxGeometry relative="1" as="geometry" />
        </mxCell>
        <mxCell id="Nl35PtOD45Dkv_G6FPpB-2" value="&lt;span style=&quot;font-size: 25px;&quot;&gt;调取详细信息&lt;/span&gt;" style="rounded=1;whiteSpace=wrap;html=1;" vertex="1" parent="1">
          <mxGeometry x="560" y="800" width="200" height="60" as="geometry" />
        </mxCell>
        <mxCell id="dYRKtx_fL2kFO8Z3HsMo-10" style="edgeStyle=orthogonalEdgeStyle;rounded=0;orthogonalLoop=1;jettySize=auto;html=1;entryX=0.5;entryY=0;entryDx=0;entryDy=0;" edge="1" parent="1" source="Nl35PtOD45Dkv_G6FPpB-4" target="dYRKtx_fL2kFO8Z3HsMo-1">
          <mxGeometry relative="1" as="geometry">
            <Array as="points">
              <mxPoint x="175" y="910" />
              <mxPoint x="671" y="910" />
            </Array>
          </mxGeometry>
        </mxCell>
        <mxCell id="Nl35PtOD45Dkv_G6FPpB-4" value="&lt;span style=&quot;font-size: 25px;&quot;&gt;输入审理意见&lt;/span&gt;" style="rounded=1;whiteSpace=wrap;html=1;" vertex="1" parent="1">
          <mxGeometry x="90" y="800" width="170" height="60" as="geometry" />
        </mxCell>
        <mxCell id="dYRKtx_fL2kFO8Z3HsMo-1" value="&lt;font style=&quot;font-size: 25px;&quot;&gt;检查意见有效性&lt;/font&gt;" style="rounded=1;whiteSpace=wrap;html=1;" vertex="1" parent="1">
          <mxGeometry x="571.16" y="960" width="200" height="60" as="geometry" />
        </mxCell>
        <mxCell id="dYRKtx_fL2kFO8Z3HsMo-2" style="edgeStyle=orthogonalEdgeStyle;rounded=0;orthogonalLoop=1;jettySize=auto;html=1;entryX=1;entryY=0.5;entryDx=0;entryDy=0;" edge="1" parent="1" source="dYRKtx_fL2kFO8Z3HsMo-6" target="dYRKtx_fL2kFO8Z3HsMo-7">
          <mxGeometry relative="1" as="geometry" />
        </mxCell>
        <mxCell id="dYRKtx_fL2kFO8Z3HsMo-12" value="&lt;font style=&quot;font-size: 15px;&quot;&gt;意见无效&lt;/font&gt;" style="edgeLabel;html=1;align=center;verticalAlign=middle;resizable=0;points=[];" vertex="1" connectable="0" parent="dYRKtx_fL2kFO8Z3HsMo-2">
          <mxGeometry x="-0.1176" relative="1" as="geometry">
            <mxPoint x="-1" as="offset" />
          </mxGeometry>
        </mxCell>
        <mxCell id="dYRKtx_fL2kFO8Z3HsMo-4" style="edgeStyle=orthogonalEdgeStyle;rounded=0;orthogonalLoop=1;jettySize=auto;html=1;entryX=0.5;entryY=0;entryDx=0;entryDy=0;" edge="1" parent="1" source="dYRKtx_fL2kFO8Z3HsMo-6" target="dYRKtx_fL2kFO8Z3HsMo-9">
          <mxGeometry relative="1" as="geometry" />
        </mxCell>
        <mxCell id="dYRKtx_fL2kFO8Z3HsMo-5" value="密码有效" style="edgeLabel;html=1;align=center;verticalAlign=middle;resizable=0;points=[];fontSize=16;" vertex="1" connectable="0" parent="dYRKtx_fL2kFO8Z3HsMo-4">
          <mxGeometry x="-0.1427" y="4" relative="1" as="geometry">
            <mxPoint as="offset" />
          </mxGeometry>
        </mxCell>
        <mxCell id="dYRKtx_fL2kFO8Z3HsMo-6" value="" style="html=1;whiteSpace=wrap;aspect=fixed;shape=isoRectangle;" vertex="1" parent="1">
          <mxGeometry x="662.16" y="1101" width="116.67" height="70" as="geometry" />
        </mxCell>
        <mxCell id="dYRKtx_fL2kFO8Z3HsMo-11" style="edgeStyle=orthogonalEdgeStyle;rounded=0;orthogonalLoop=1;jettySize=auto;html=1;entryX=0.25;entryY=1;entryDx=0;entryDy=0;" edge="1" parent="1" source="dYRKtx_fL2kFO8Z3HsMo-7" target="Nl35PtOD45Dkv_G6FPpB-4">
          <mxGeometry relative="1" as="geometry" />
        </mxCell>
        <mxCell id="dYRKtx_fL2kFO8Z3HsMo-7" value="&lt;font style=&quot;font-size: 25px;&quot;&gt;系统提示&lt;/font&gt;" style="rounded=1;whiteSpace=wrap;html=1;" vertex="1" parent="1">
          <mxGeometry x="441.16" y="1106" width="120" height="60" as="geometry" />
        </mxCell>
        <mxCell id="dYRKtx_fL2kFO8Z3HsMo-8" style="edgeStyle=orthogonalEdgeStyle;rounded=0;orthogonalLoop=1;jettySize=auto;html=1;exitX=0.75;exitY=1;exitDx=0;exitDy=0;entryX=0.502;entryY=-0.039;entryDx=0;entryDy=0;entryPerimeter=0;" edge="1" parent="1" source="dYRKtx_fL2kFO8Z3HsMo-1" target="dYRKtx_fL2kFO8Z3HsMo-6">
          <mxGeometry relative="1" as="geometry" />
        </mxCell>
        <mxCell id="dYRKtx_fL2kFO8Z3HsMo-15" style="edgeStyle=orthogonalEdgeStyle;rounded=0;orthogonalLoop=1;jettySize=auto;html=1;entryX=0.5;entryY=0;entryDx=0;entryDy=0;" edge="1" parent="1" source="dYRKtx_fL2kFO8Z3HsMo-9" target="dYRKtx_fL2kFO8Z3HsMo-13">
          <mxGeometry relative="1" as="geometry" />
        </mxCell>
        <mxCell id="dYRKtx_fL2kFO8Z3HsMo-9" value="&lt;font style=&quot;font-size: 25px;&quot;&gt;更新学生名册&lt;/font&gt;" style="rounded=1;whiteSpace=wrap;html=1;" vertex="1" parent="1">
          <mxGeometry x="551.16" y="1230" width="180" height="60" as="geometry" />
        </mxCell>
        <mxCell id="dYRKtx_fL2kFO8Z3HsMo-16" style="edgeStyle=orthogonalEdgeStyle;rounded=0;orthogonalLoop=1;jettySize=auto;html=1;entryX=0.5;entryY=0;entryDx=0;entryDy=0;" edge="1" parent="1" source="dYRKtx_fL2kFO8Z3HsMo-13" target="dYRKtx_fL2kFO8Z3HsMo-14">
          <mxGeometry relative="1" as="geometry" />
        </mxCell>
        <mxCell id="dYRKtx_fL2kFO8Z3HsMo-26" style="edgeStyle=orthogonalEdgeStyle;rounded=0;orthogonalLoop=1;jettySize=auto;html=1;entryX=0;entryY=0.5;entryDx=0;entryDy=0;" edge="1" parent="1" source="dYRKtx_fL2kFO8Z3HsMo-13" target="dYRKtx_fL2kFO8Z3HsMo-21">
          <mxGeometry relative="1" as="geometry" />
        </mxCell>
        <mxCell id="dYRKtx_fL2kFO8Z3HsMo-13" value="&lt;font style=&quot;font-size: 25px;&quot;&gt;通知学生&lt;/font&gt;" style="rounded=1;whiteSpace=wrap;html=1;" vertex="1" parent="1">
          <mxGeometry x="551.16" y="1340" width="180" height="60" as="geometry" />
        </mxCell>
        <mxCell id="dYRKtx_fL2kFO8Z3HsMo-17" style="edgeStyle=orthogonalEdgeStyle;rounded=0;orthogonalLoop=1;jettySize=auto;html=1;entryX=0.5;entryY=0;entryDx=0;entryDy=0;" edge="1" parent="1" source="dYRKtx_fL2kFO8Z3HsMo-14" target="N59Xq0roTIGR6HwTiRZq-37">
          <mxGeometry relative="1" as="geometry" />
        </mxCell>
        <mxCell id="dYRKtx_fL2kFO8Z3HsMo-14" value="&lt;font style=&quot;font-size: 25px;&quot;&gt;更新统计信息&lt;/font&gt;" style="rounded=1;whiteSpace=wrap;html=1;" vertex="1" parent="1">
          <mxGeometry x="551.16" y="1460" width="180" height="60" as="geometry" />
        </mxCell>
        <mxCell id="dYRKtx_fL2kFO8Z3HsMo-18" style="edgeStyle=orthogonalEdgeStyle;rounded=0;orthogonalLoop=1;jettySize=auto;html=1;entryX=0.5;entryY=0;entryDx=0;entryDy=0;" edge="1" parent="1" source="dYRKtx_fL2kFO8Z3HsMo-19" target="dYRKtx_fL2kFO8Z3HsMo-20">
          <mxGeometry relative="1" as="geometry" />
        </mxCell>
        <mxCell id="dYRKtx_fL2kFO8Z3HsMo-19" value="" style="ellipse;whiteSpace=wrap;html=1;aspect=fixed;shadow=0;fillColor=#000000;" vertex="1" parent="1">
          <mxGeometry x="1020" y="90" width="40" height="40" as="geometry" />
        </mxCell>
        <mxCell id="dYRKtx_fL2kFO8Z3HsMo-22" style="edgeStyle=orthogonalEdgeStyle;rounded=0;orthogonalLoop=1;jettySize=auto;html=1;entryX=0.5;entryY=0;entryDx=0;entryDy=0;" edge="1" parent="1" source="dYRKtx_fL2kFO8Z3HsMo-20" target="dYRKtx_fL2kFO8Z3HsMo-21">
          <mxGeometry relative="1" as="geometry" />
        </mxCell>
        <mxCell id="dYRKtx_fL2kFO8Z3HsMo-20" value="&lt;font style=&quot;font-size: 25px;&quot;&gt;登录&lt;/font&gt;" style="rounded=1;whiteSpace=wrap;html=1;" vertex="1" parent="1">
          <mxGeometry x="965" y="210" width="150" height="60" as="geometry" />
        </mxCell>
        <mxCell id="dYRKtx_fL2kFO8Z3HsMo-25" style="edgeStyle=orthogonalEdgeStyle;rounded=0;orthogonalLoop=1;jettySize=auto;html=1;entryX=0.5;entryY=0;entryDx=0;entryDy=0;" edge="1" parent="1" source="dYRKtx_fL2kFO8Z3HsMo-21" target="dYRKtx_fL2kFO8Z3HsMo-24">
          <mxGeometry relative="1" as="geometry" />
        </mxCell>
        <mxCell id="dYRKtx_fL2kFO8Z3HsMo-21" value="&lt;font style=&quot;font-size: 25px;&quot;&gt;查看通知&lt;/font&gt;" style="rounded=1;whiteSpace=wrap;html=1;" vertex="1" parent="1">
          <mxGeometry x="950" y="1340" width="180" height="60" as="geometry" />
        </mxCell>
        <mxCell id="dYRKtx_fL2kFO8Z3HsMo-23" value="" style="ellipse;whiteSpace=wrap;html=1;aspect=fixed;shadow=0;fillColor=#000000;" vertex="1" parent="1">
          <mxGeometry x="1020" y="1595" width="40" height="40" as="geometry" />
        </mxCell>
        <mxCell id="dYRKtx_fL2kFO8Z3HsMo-24" value="" style="ellipse;whiteSpace=wrap;html=1;aspect=fixed;fillColor=none;" vertex="1" parent="1">
          <mxGeometry x="1005" y="1580" width="70" height="70" as="geometry" />
        </mxCell>
      </root>
    </mxGraphModel>
  </diagram>
  <diagram id="Nf8kVua5cmJazcojxAeo" name="第 4 页">
    <mxGraphModel dx="2505" dy="1413" grid="1" gridSize="10" guides="1" tooltips="1" connect="1" arrows="1" fold="1" page="1" pageScale="1" pageWidth="827" pageHeight="1169" math="0" shadow="0">
      <root>
        <mxCell id="0" />
        <mxCell id="1" parent="0" />
        <mxCell id="Tr5TlwkFEmLh_yiJx2t3-1" value="" style="endArrow=none;html=1;rounded=0;" edge="1" parent="1">
          <mxGeometry width="50" height="50" relative="1" as="geometry">
            <mxPoint x="400" y="2030" as="sourcePoint" />
            <mxPoint x="400" as="targetPoint" />
          </mxGeometry>
        </mxCell>
        <mxCell id="Tr5TlwkFEmLh_yiJx2t3-2" value="&lt;font style=&quot;font-size: 30px;&quot;&gt;教师&lt;/font&gt;" style="rounded=0;whiteSpace=wrap;html=1;" vertex="1" parent="1">
          <mxGeometry width="400" height="70" as="geometry" />
        </mxCell>
        <mxCell id="Tr5TlwkFEmLh_yiJx2t3-3" value="&lt;font style=&quot;font-size: 30px;&quot;&gt;系统&lt;/font&gt;" style="rounded=0;whiteSpace=wrap;html=1;" vertex="1" parent="1">
          <mxGeometry x="400" width="420" height="70" as="geometry" />
        </mxCell>
        <mxCell id="Tr5TlwkFEmLh_yiJx2t3-4" style="edgeStyle=orthogonalEdgeStyle;rounded=0;orthogonalLoop=1;jettySize=auto;html=1;entryX=0.5;entryY=0;entryDx=0;entryDy=0;" edge="1" parent="1" source="Tr5TlwkFEmLh_yiJx2t3-5" target="Tr5TlwkFEmLh_yiJx2t3-7">
          <mxGeometry relative="1" as="geometry" />
        </mxCell>
        <mxCell id="Tr5TlwkFEmLh_yiJx2t3-5" value="" style="ellipse;whiteSpace=wrap;html=1;aspect=fixed;shadow=0;fillColor=#000000;" vertex="1" parent="1">
          <mxGeometry x="180" y="110" width="40" height="40" as="geometry" />
        </mxCell>
        <mxCell id="Tr5TlwkFEmLh_yiJx2t3-6" style="edgeStyle=orthogonalEdgeStyle;rounded=0;orthogonalLoop=1;jettySize=auto;html=1;entryX=0;entryY=0.5;entryDx=0;entryDy=0;" edge="1" parent="1" source="Tr5TlwkFEmLh_yiJx2t3-7" target="Tr5TlwkFEmLh_yiJx2t3-9">
          <mxGeometry relative="1" as="geometry" />
        </mxCell>
        <mxCell id="Tr5TlwkFEmLh_yiJx2t3-7" value="&lt;font style=&quot;font-size: 25px;&quot;&gt;点击上传成绩&lt;/font&gt;" style="rounded=1;whiteSpace=wrap;html=1;" vertex="1" parent="1">
          <mxGeometry x="109" y="230" width="180" height="60" as="geometry" />
        </mxCell>
        <mxCell id="Tr5TlwkFEmLh_yiJx2t3-8" style="edgeStyle=orthogonalEdgeStyle;rounded=0;orthogonalLoop=1;jettySize=auto;html=1;entryX=0.5;entryY=0;entryDx=0;entryDy=0;" edge="1" parent="1" source="Tr5TlwkFEmLh_yiJx2t3-9" target="Tr5TlwkFEmLh_yiJx2t3-10">
          <mxGeometry relative="1" as="geometry" />
        </mxCell>
        <mxCell id="Tr5TlwkFEmLh_yiJx2t3-9" value="&lt;font style=&quot;font-size: 25px;&quot;&gt;调取页面信息&lt;/font&gt;" style="rounded=1;whiteSpace=wrap;html=1;" vertex="1" parent="1">
          <mxGeometry x="550" y="230" width="180" height="60" as="geometry" />
        </mxCell>
        <mxCell id="Tr5TlwkFEmLh_yiJx2t3-10" value="&lt;font style=&quot;font-size: 25px;&quot;&gt;检索教授课程信息&lt;/font&gt;" style="rounded=1;whiteSpace=wrap;html=1;" vertex="1" parent="1">
          <mxGeometry x="530" y="369" width="220" height="60" as="geometry" />
        </mxCell>
        <mxCell id="Tr5TlwkFEmLh_yiJx2t3-11" style="edgeStyle=orthogonalEdgeStyle;rounded=0;orthogonalLoop=1;jettySize=auto;html=1;entryX=1;entryY=0.5;entryDx=0;entryDy=0;" edge="1" parent="1" source="Tr5TlwkFEmLh_yiJx2t3-13" target="Tr5TlwkFEmLh_yiJx2t3-15">
          <mxGeometry relative="1" as="geometry" />
        </mxCell>
        <mxCell id="Tr5TlwkFEmLh_yiJx2t3-12" value="&lt;font style=&quot;font-size: 15px;&quot;&gt;无课程&lt;/font&gt;" style="edgeLabel;html=1;align=center;verticalAlign=middle;resizable=0;points=[];" vertex="1" connectable="0" parent="Tr5TlwkFEmLh_yiJx2t3-11">
          <mxGeometry x="-0.0416" y="3" relative="1" as="geometry">
            <mxPoint as="offset" />
          </mxGeometry>
        </mxCell>
        <mxCell id="Tr5TlwkFEmLh_yiJx2t3-13" value="" style="html=1;whiteSpace=wrap;aspect=fixed;shape=isoRectangle;" vertex="1" parent="1">
          <mxGeometry x="635" y="510" width="116.67" height="70" as="geometry" />
        </mxCell>
        <mxCell id="Tr5TlwkFEmLh_yiJx2t3-14" style="edgeStyle=orthogonalEdgeStyle;rounded=0;orthogonalLoop=1;jettySize=auto;html=1;exitX=0.5;exitY=1;exitDx=0;exitDy=0;entryX=0.5;entryY=0;entryDx=0;entryDy=0;" edge="1" parent="1" source="Tr5TlwkFEmLh_yiJx2t3-15" target="Tr5TlwkFEmLh_yiJx2t3-25">
          <mxGeometry relative="1" as="geometry" />
        </mxCell>
        <mxCell id="Tr5TlwkFEmLh_yiJx2t3-15" value="&lt;font style=&quot;font-size: 25px;&quot;&gt;系统提示&lt;/font&gt;" style="rounded=1;whiteSpace=wrap;html=1;" vertex="1" parent="1">
          <mxGeometry x="420" y="515" width="120" height="60" as="geometry" />
        </mxCell>
        <mxCell id="Tr5TlwkFEmLh_yiJx2t3-59" style="edgeStyle=orthogonalEdgeStyle;rounded=0;orthogonalLoop=1;jettySize=auto;html=1;entryX=0.5;entryY=0;entryDx=0;entryDy=0;" edge="1" parent="1" source="Tr5TlwkFEmLh_yiJx2t3-17" target="Tr5TlwkFEmLh_yiJx2t3-48">
          <mxGeometry relative="1" as="geometry">
            <Array as="points">
              <mxPoint x="175" y="750" />
              <mxPoint x="669" y="750" />
            </Array>
          </mxGeometry>
        </mxCell>
        <mxCell id="Tr5TlwkFEmLh_yiJx2t3-17" value="&lt;span style=&quot;font-size: 25px;&quot;&gt;选择登分课程&lt;/span&gt;" style="rounded=1;whiteSpace=wrap;html=1;" vertex="1" parent="1">
          <mxGeometry x="90" y="660" width="170" height="60" as="geometry" />
        </mxCell>
        <mxCell id="Tr5TlwkFEmLh_yiJx2t3-18" style="edgeStyle=orthogonalEdgeStyle;rounded=0;orthogonalLoop=1;jettySize=auto;html=1;entryX=1;entryY=0.5;entryDx=0;entryDy=0;" edge="1" parent="1" source="Tr5TlwkFEmLh_yiJx2t3-19" target="Tr5TlwkFEmLh_yiJx2t3-17">
          <mxGeometry relative="1" as="geometry" />
        </mxCell>
        <mxCell id="Tr5TlwkFEmLh_yiJx2t3-19" value="&lt;font style=&quot;font-size: 25px;&quot;&gt;显示课程列表&lt;/font&gt;" style="rounded=1;whiteSpace=wrap;html=1;" vertex="1" parent="1">
          <mxGeometry x="560" y="660" width="200" height="60" as="geometry" />
        </mxCell>
        <mxCell id="Tr5TlwkFEmLh_yiJx2t3-20" value="" style="ellipse;whiteSpace=wrap;html=1;aspect=fixed;shadow=0;fillColor=#000000;" vertex="1" parent="1">
          <mxGeometry x="624.16" y="1965" width="40" height="40" as="geometry" />
        </mxCell>
        <mxCell id="Tr5TlwkFEmLh_yiJx2t3-21" value="" style="ellipse;whiteSpace=wrap;html=1;aspect=fixed;fillColor=none;" vertex="1" parent="1">
          <mxGeometry x="609.16" y="1950" width="70" height="70" as="geometry" />
        </mxCell>
        <mxCell id="Tr5TlwkFEmLh_yiJx2t3-23" style="edgeStyle=orthogonalEdgeStyle;rounded=0;orthogonalLoop=1;jettySize=auto;html=1;exitX=0.75;exitY=1;exitDx=0;exitDy=0;entryX=0.514;entryY=-0.024;entryDx=0;entryDy=0;entryPerimeter=0;" edge="1" parent="1" source="Tr5TlwkFEmLh_yiJx2t3-10" target="Tr5TlwkFEmLh_yiJx2t3-13">
          <mxGeometry relative="1" as="geometry" />
        </mxCell>
        <mxCell id="Tr5TlwkFEmLh_yiJx2t3-24" value="" style="ellipse;whiteSpace=wrap;html=1;aspect=fixed;shadow=0;fillColor=#000000;" vertex="1" parent="1">
          <mxGeometry x="460" y="625" width="40" height="40" as="geometry" />
        </mxCell>
        <mxCell id="Tr5TlwkFEmLh_yiJx2t3-25" value="" style="ellipse;whiteSpace=wrap;html=1;aspect=fixed;fillColor=none;" vertex="1" parent="1">
          <mxGeometry x="445" y="610" width="70" height="70" as="geometry" />
        </mxCell>
        <mxCell id="Tr5TlwkFEmLh_yiJx2t3-26" style="edgeStyle=orthogonalEdgeStyle;rounded=0;orthogonalLoop=1;jettySize=auto;html=1;entryX=0.666;entryY=-0.046;entryDx=0;entryDy=0;entryPerimeter=0;" edge="1" parent="1" source="Tr5TlwkFEmLh_yiJx2t3-13" target="Tr5TlwkFEmLh_yiJx2t3-19">
          <mxGeometry relative="1" as="geometry" />
        </mxCell>
        <mxCell id="Tr5TlwkFEmLh_yiJx2t3-27" value="&lt;font style=&quot;font-size: 16px;&quot;&gt;有课程&lt;/font&gt;" style="edgeLabel;html=1;align=center;verticalAlign=middle;resizable=0;points=[];" vertex="1" connectable="0" parent="Tr5TlwkFEmLh_yiJx2t3-26">
          <mxGeometry x="-0.0195" relative="1" as="geometry">
            <mxPoint y="2" as="offset" />
          </mxGeometry>
        </mxCell>
        <mxCell id="Tr5TlwkFEmLh_yiJx2t3-28" style="edgeStyle=orthogonalEdgeStyle;rounded=0;orthogonalLoop=1;jettySize=auto;html=1;entryX=1;entryY=0.5;entryDx=0;entryDy=0;" edge="1" parent="1" source="Tr5TlwkFEmLh_yiJx2t3-29" target="Tr5TlwkFEmLh_yiJx2t3-31">
          <mxGeometry relative="1" as="geometry" />
        </mxCell>
        <mxCell id="Tr5TlwkFEmLh_yiJx2t3-29" value="&lt;span style=&quot;font-size: 25px;&quot;&gt;显示学生名册&lt;/span&gt;" style="rounded=1;whiteSpace=wrap;html=1;" vertex="1" parent="1">
          <mxGeometry x="617.49" y="1120" width="200" height="60" as="geometry" />
        </mxCell>
        <mxCell id="Tr5TlwkFEmLh_yiJx2t3-30" style="edgeStyle=orthogonalEdgeStyle;rounded=0;orthogonalLoop=1;jettySize=auto;html=1;entryX=0.5;entryY=0;entryDx=0;entryDy=0;" edge="1" parent="1" source="Tr5TlwkFEmLh_yiJx2t3-31" target="Tr5TlwkFEmLh_yiJx2t3-32">
          <mxGeometry relative="1" as="geometry">
            <Array as="points">
              <mxPoint x="175" y="1230" />
              <mxPoint x="604" y="1230" />
            </Array>
          </mxGeometry>
        </mxCell>
        <mxCell id="Tr5TlwkFEmLh_yiJx2t3-31" value="&lt;span style=&quot;font-size: 25px;&quot;&gt;选择学生&lt;/span&gt;" style="rounded=1;whiteSpace=wrap;html=1;" vertex="1" parent="1">
          <mxGeometry x="90" y="1120" width="170" height="60" as="geometry" />
        </mxCell>
        <mxCell id="Tr5TlwkFEmLh_yiJx2t3-64" style="edgeStyle=orthogonalEdgeStyle;rounded=0;orthogonalLoop=1;jettySize=auto;html=1;" edge="1" parent="1" source="Tr5TlwkFEmLh_yiJx2t3-32" target="Tr5TlwkFEmLh_yiJx2t3-63">
          <mxGeometry relative="1" as="geometry" />
        </mxCell>
        <mxCell id="Tr5TlwkFEmLh_yiJx2t3-32" value="&lt;font style=&quot;font-size: 25px;&quot;&gt;检索学生信息和成绩&lt;/font&gt;" style="rounded=1;whiteSpace=wrap;html=1;" vertex="1" parent="1">
          <mxGeometry x="478.84000000000003" y="1280" width="251.16" height="60" as="geometry" />
        </mxCell>
        <mxCell id="Tr5TlwkFEmLh_yiJx2t3-33" style="edgeStyle=orthogonalEdgeStyle;rounded=0;orthogonalLoop=1;jettySize=auto;html=1;entryX=1;entryY=0.5;entryDx=0;entryDy=0;" edge="1" parent="1" source="Tr5TlwkFEmLh_yiJx2t3-37" target="Tr5TlwkFEmLh_yiJx2t3-39">
          <mxGeometry relative="1" as="geometry" />
        </mxCell>
        <mxCell id="Tr5TlwkFEmLh_yiJx2t3-34" value="&lt;font style=&quot;font-size: 15px;&quot;&gt;成绩无效&lt;/font&gt;" style="edgeLabel;html=1;align=center;verticalAlign=middle;resizable=0;points=[];" vertex="1" connectable="0" parent="Tr5TlwkFEmLh_yiJx2t3-33">
          <mxGeometry x="-0.1176" relative="1" as="geometry">
            <mxPoint x="-1" as="offset" />
          </mxGeometry>
        </mxCell>
        <mxCell id="Tr5TlwkFEmLh_yiJx2t3-35" style="edgeStyle=orthogonalEdgeStyle;rounded=0;orthogonalLoop=1;jettySize=auto;html=1;entryX=0.5;entryY=0;entryDx=0;entryDy=0;" edge="1" parent="1" source="Tr5TlwkFEmLh_yiJx2t3-37" target="Tr5TlwkFEmLh_yiJx2t3-42">
          <mxGeometry relative="1" as="geometry" />
        </mxCell>
        <mxCell id="Tr5TlwkFEmLh_yiJx2t3-36" value="成绩有效" style="edgeLabel;html=1;align=center;verticalAlign=middle;resizable=0;points=[];fontSize=16;" vertex="1" connectable="0" parent="Tr5TlwkFEmLh_yiJx2t3-35">
          <mxGeometry x="-0.1427" y="4" relative="1" as="geometry">
            <mxPoint as="offset" />
          </mxGeometry>
        </mxCell>
        <mxCell id="Tr5TlwkFEmLh_yiJx2t3-37" value="" style="html=1;whiteSpace=wrap;aspect=fixed;shape=isoRectangle;" vertex="1" parent="1">
          <mxGeometry x="665.16" y="1560" width="116.67" height="70" as="geometry" />
        </mxCell>
        <mxCell id="5ZW3lt95ac65dx9kNE5--3" style="edgeStyle=orthogonalEdgeStyle;rounded=0;orthogonalLoop=1;jettySize=auto;html=1;entryX=0.25;entryY=1;entryDx=0;entryDy=0;" edge="1" parent="1" source="Tr5TlwkFEmLh_yiJx2t3-39" target="Tr5TlwkFEmLh_yiJx2t3-63">
          <mxGeometry relative="1" as="geometry" />
        </mxCell>
        <mxCell id="Tr5TlwkFEmLh_yiJx2t3-39" value="&lt;font style=&quot;font-size: 25px;&quot;&gt;系统提示&lt;/font&gt;" style="rounded=1;whiteSpace=wrap;html=1;" vertex="1" parent="1">
          <mxGeometry x="444.16" y="1565" width="120" height="60" as="geometry" />
        </mxCell>
        <mxCell id="Tr5TlwkFEmLh_yiJx2t3-42" value="&lt;font style=&quot;font-size: 25px;&quot;&gt;更新成绩信息&lt;/font&gt;" style="rounded=1;whiteSpace=wrap;html=1;" vertex="1" parent="1">
          <mxGeometry x="554.16" y="1689" width="180" height="60" as="geometry" />
        </mxCell>
        <mxCell id="Tr5TlwkFEmLh_yiJx2t3-43" style="edgeStyle=orthogonalEdgeStyle;rounded=0;orthogonalLoop=1;jettySize=auto;html=1;entryX=0.5;entryY=0;entryDx=0;entryDy=0;exitX=0.5;exitY=1;exitDx=0;exitDy=0;" edge="1" parent="1" source="Tr5TlwkFEmLh_yiJx2t3-42" target="Tr5TlwkFEmLh_yiJx2t3-46">
          <mxGeometry relative="1" as="geometry">
            <mxPoint x="644.1599999999999" y="1859" as="sourcePoint" />
          </mxGeometry>
        </mxCell>
        <mxCell id="Tr5TlwkFEmLh_yiJx2t3-45" style="edgeStyle=orthogonalEdgeStyle;rounded=0;orthogonalLoop=1;jettySize=auto;html=1;entryX=0.5;entryY=0;entryDx=0;entryDy=0;" edge="1" parent="1" source="Tr5TlwkFEmLh_yiJx2t3-46" target="Tr5TlwkFEmLh_yiJx2t3-21">
          <mxGeometry relative="1" as="geometry" />
        </mxCell>
        <mxCell id="Tr5TlwkFEmLh_yiJx2t3-46" value="&lt;font style=&quot;font-size: 25px;&quot;&gt;更新统计信息&lt;/font&gt;" style="rounded=1;whiteSpace=wrap;html=1;" vertex="1" parent="1">
          <mxGeometry x="554" y="1840" width="180" height="60" as="geometry" />
        </mxCell>
        <mxCell id="Tr5TlwkFEmLh_yiJx2t3-48" value="&lt;font style=&quot;font-size: 25px;&quot;&gt;检索课程名单&lt;/font&gt;" style="rounded=1;whiteSpace=wrap;html=1;" vertex="1" parent="1">
          <mxGeometry x="571.16" y="790" width="195.84" height="60" as="geometry" />
        </mxCell>
        <mxCell id="Tr5TlwkFEmLh_yiJx2t3-49" style="edgeStyle=orthogonalEdgeStyle;rounded=0;orthogonalLoop=1;jettySize=auto;html=1;entryX=1;entryY=0.5;entryDx=0;entryDy=0;" edge="1" parent="1" source="Tr5TlwkFEmLh_yiJx2t3-51" target="Tr5TlwkFEmLh_yiJx2t3-53">
          <mxGeometry relative="1" as="geometry" />
        </mxCell>
        <mxCell id="Tr5TlwkFEmLh_yiJx2t3-50" value="&lt;font style=&quot;font-size: 15px;&quot;&gt;无学生&lt;/font&gt;" style="edgeLabel;html=1;align=center;verticalAlign=middle;resizable=0;points=[];" vertex="1" connectable="0" parent="Tr5TlwkFEmLh_yiJx2t3-49">
          <mxGeometry x="-0.0416" y="3" relative="1" as="geometry">
            <mxPoint as="offset" />
          </mxGeometry>
        </mxCell>
        <mxCell id="Tr5TlwkFEmLh_yiJx2t3-61" style="edgeStyle=orthogonalEdgeStyle;rounded=0;orthogonalLoop=1;jettySize=auto;html=1;entryX=0.5;entryY=0;entryDx=0;entryDy=0;" edge="1" parent="1" source="Tr5TlwkFEmLh_yiJx2t3-51" target="Tr5TlwkFEmLh_yiJx2t3-29">
          <mxGeometry relative="1" as="geometry" />
        </mxCell>
        <mxCell id="Tr5TlwkFEmLh_yiJx2t3-62" value="&lt;font style=&quot;font-size: 16px;&quot;&gt;有学生&lt;/font&gt;" style="edgeLabel;html=1;align=center;verticalAlign=middle;resizable=0;points=[];" vertex="1" connectable="0" parent="Tr5TlwkFEmLh_yiJx2t3-61">
          <mxGeometry x="0.0084" y="-3" relative="1" as="geometry">
            <mxPoint as="offset" />
          </mxGeometry>
        </mxCell>
        <mxCell id="Tr5TlwkFEmLh_yiJx2t3-51" value="" style="html=1;whiteSpace=wrap;aspect=fixed;shape=isoRectangle;" vertex="1" parent="1">
          <mxGeometry x="659.16" y="931" width="116.67" height="70" as="geometry" />
        </mxCell>
        <mxCell id="5ZW3lt95ac65dx9kNE5--4" style="edgeStyle=orthogonalEdgeStyle;rounded=0;orthogonalLoop=1;jettySize=auto;html=1;entryX=0.25;entryY=1;entryDx=0;entryDy=0;" edge="1" parent="1" source="Tr5TlwkFEmLh_yiJx2t3-53" target="Tr5TlwkFEmLh_yiJx2t3-17">
          <mxGeometry relative="1" as="geometry" />
        </mxCell>
        <mxCell id="Tr5TlwkFEmLh_yiJx2t3-53" value="&lt;font style=&quot;font-size: 25px;&quot;&gt;系统提示&lt;/font&gt;" style="rounded=1;whiteSpace=wrap;html=1;" vertex="1" parent="1">
          <mxGeometry x="444.16" y="936" width="120" height="60" as="geometry" />
        </mxCell>
        <mxCell id="Tr5TlwkFEmLh_yiJx2t3-54" style="edgeStyle=orthogonalEdgeStyle;rounded=0;orthogonalLoop=1;jettySize=auto;html=1;exitX=0.75;exitY=1;exitDx=0;exitDy=0;entryX=0.514;entryY=-0.024;entryDx=0;entryDy=0;entryPerimeter=0;" edge="1" parent="1" source="Tr5TlwkFEmLh_yiJx2t3-48" target="Tr5TlwkFEmLh_yiJx2t3-51">
          <mxGeometry relative="1" as="geometry" />
        </mxCell>
        <mxCell id="5ZW3lt95ac65dx9kNE5--2" style="edgeStyle=orthogonalEdgeStyle;rounded=0;orthogonalLoop=1;jettySize=auto;html=1;entryX=0.5;entryY=0;entryDx=0;entryDy=0;" edge="1" parent="1" source="Tr5TlwkFEmLh_yiJx2t3-63" target="Tr5TlwkFEmLh_yiJx2t3-65">
          <mxGeometry relative="1" as="geometry">
            <Array as="points">
              <mxPoint x="175" y="1380" />
              <mxPoint x="610" y="1380" />
            </Array>
          </mxGeometry>
        </mxCell>
        <mxCell id="Tr5TlwkFEmLh_yiJx2t3-63" value="&lt;span style=&quot;font-size: 25px;&quot;&gt;输入成绩&lt;/span&gt;" style="rounded=1;whiteSpace=wrap;html=1;" vertex="1" parent="1">
          <mxGeometry x="90" y="1280" width="170" height="60" as="geometry" />
        </mxCell>
        <mxCell id="5ZW3lt95ac65dx9kNE5--1" value="" style="edgeStyle=orthogonalEdgeStyle;rounded=0;orthogonalLoop=1;jettySize=auto;html=1;" edge="1" parent="1" source="Tr5TlwkFEmLh_yiJx2t3-65" target="Tr5TlwkFEmLh_yiJx2t3-37">
          <mxGeometry relative="1" as="geometry" />
        </mxCell>
        <mxCell id="Tr5TlwkFEmLh_yiJx2t3-65" value="&lt;font style=&quot;font-size: 25px;&quot;&gt;检查输入成绩有效性&lt;/font&gt;" style="rounded=1;whiteSpace=wrap;html=1;" vertex="1" parent="1">
          <mxGeometry x="484.42" y="1410" width="251.16" height="60" as="geometry" />
        </mxCell>
      </root>
    </mxGraphModel>
  </diagram>
</mxfile>
